<svg width="124" height="36" viewBox="0 0 124 36" fill="none" xmlns="http://www.w3.org/2000/svg">
<path fill-rule="evenodd" clip-rule="evenodd" d="M0 10.8C0 6.94044 0 5.01066 0.780431 3.54713C1.41023 2.36608 2.38298 1.40023 3.57247 0.774896C5.04645 0 6.99001 0 10.8771 0H36.1229C40.01 0 41.9536 0 43.4275 0.774896C44.617 1.40023 45.5898 2.36608 46.2196 3.54713C47 5.01066 47 6.94044 47 10.8V24.7315C46.8893 24.2291 46.69 23.7689 46.4021 23.3507C45.9491 22.6926 45.3149 22.1788 44.4994 21.8095C43.6888 21.4402 42.7398 21.2555 41.6525 21.2555C40.5844 21.2555 39.6306 21.4402 38.7913 21.8095C37.952 22.1788 37.2916 22.6926 36.81 23.3507C36.3331 24.0088 36.097 24.7783 36.1018 25.6589C36.097 26.7338 36.4523 27.5884 37.1676 28.2229C37.8829 28.8573 38.8581 29.3237 40.0932 29.622L41.6883 30.0197C42.2224 30.1476 42.673 30.2896 43.0402 30.4459C43.4122 30.6021 43.6935 30.7915 43.8843 31.0141C44.0798 31.2366 44.1775 31.5112 44.1775 31.8379C44.1775 32.1883 44.0703 32.4984 43.8557 32.7683C43.6411 33.0382 43.3383 33.2489 42.9472 33.4004C42.561 33.5519 42.1056 33.6277 41.581 33.6277C41.0469 33.6277 40.5677 33.5472 40.1433 33.3862C39.7236 33.2205 39.3874 32.9767 39.1347 32.6547C38.8867 32.328 38.746 31.9208 38.7127 31.4331H35.7155C35.7394 32.4795 35.9945 33.3578 36.4809 34.068C36.9721 34.7735 37.654 35.3062 38.5267 35.666C38.8237 35.7878 39.1381 35.889 39.4701 35.9696C38.5402 36 37.4437 36 36.1229 36H10.8771C6.99001 36 5.04645 36 3.57247 35.2251C2.38298 34.5998 1.41023 33.6339 0.780431 32.4529C0 30.9893 0 29.0596 0 25.2V10.8ZM4.02857 8C4.02857 5.79086 5.83222 4 8.05714 4H10.7429C12.9678 4 14.7714 5.79086 14.7714 8V10.6667C14.7714 12.8758 12.9678 14.6667 10.7429 14.6667H8.05714C5.83222 14.6667 4.02857 12.8758 4.02857 10.6667V8Z" fill="url(#paint0_linear_11_2215)"/>
<path fill-rule="evenodd" clip-rule="evenodd" d="M0 10.8C0 6.94044 0 5.01066 0.780431 3.54713C1.41023 2.36608 2.38298 1.40023 3.57247 0.774896C5.04645 0 6.99001 0 10.8771 0H36.1229C40.01 0 41.9536 0 43.4275 0.774896C44.617 1.40023 45.5898 2.36608 46.2196 3.54713C47 5.01066 47 6.94044 47 10.8V24.7315C46.8893 24.2291 46.69 23.7689 46.4021 23.3507C45.9491 22.6926 45.3149 22.1788 44.4994 21.8095C43.6888 21.4402 42.7398 21.2555 41.6525 21.2555C40.5844 21.2555 39.6306 21.4402 38.7913 21.8095C37.952 22.1788 37.2916 22.6926 36.81 23.3507C36.3331 24.0088 36.097 24.7783 36.1018 25.6589C36.097 26.7338 36.4523 27.5884 37.1676 28.2229C37.8829 28.8573 38.8581 29.3237 40.0932 29.622L41.6883 30.0197C42.2224 30.1476 42.673 30.2896 43.0402 30.4459C43.4122 30.6021 43.6935 30.7915 43.8843 31.0141C44.0798 31.2366 44.1775 31.5112 44.1775 31.8379C44.1775 32.1883 44.0703 32.4984 43.8557 32.7683C43.6411 33.0382 43.3383 33.2489 42.9472 33.4004C42.561 33.5519 42.1056 33.6277 41.581 33.6277C41.0469 33.6277 40.5677 33.5472 40.1433 33.3862C39.7236 33.2205 39.3874 32.9767 39.1347 32.6547C38.8867 32.328 38.746 31.9208 38.7127 31.4331H35.7155C35.7394 32.4795 35.9945 33.3578 36.4809 34.068C36.9721 34.7735 37.654 35.3062 38.5267 35.666C38.8237 35.7878 39.1381 35.889 39.4701 35.9696C38.5402 36 37.4437 36 36.1229 36H10.8771C6.99001 36 5.04645 36 3.57247 35.2251C2.38298 34.5998 1.41023 33.6339 0.780431 32.4529C0 30.9893 0 29.0596 0 25.2V10.8ZM4.02857 8C4.02857 5.79086 5.83222 4 8.05714 4H10.7429C12.9678 4 14.7714 5.79086 14.7714 8V10.6667C14.7714 12.8758 12.9678 14.6667 10.7429 14.6667H8.05714C5.83222 14.6667 4.02857 12.8758 4.02857 10.6667V8Z" fill="black" fill-opacity="0.2"/>
<path d="M46.8723 30.0404C46.991 28.9288 46.9994 27.5253 47 25.6376H44.1346C44.0774 25.0647 43.8318 24.6196 43.3979 24.3024C42.9639 23.9852 42.375 23.8266 41.6311 23.8266C41.1256 23.8266 40.6988 23.8976 40.3507 24.0396C40.0026 24.1769 39.7355 24.3687 39.5496 24.6149C39.3683 24.8611 39.2777 25.1405 39.2777 25.453C39.2682 25.7134 39.323 25.9407 39.4423 26.1348C39.5662 26.3289 39.7355 26.497 39.9501 26.6391C40.1647 26.7764 40.4127 26.8971 40.694 27.0013C40.9754 27.1007 41.2758 27.1859 41.5953 27.257L42.9115 27.5695C43.5505 27.7115 44.137 27.9009 44.6711 28.1376C45.2052 28.3744 45.6678 28.6656 46.0588 29.0112C46.3953 29.3087 46.6665 29.6517 46.8723 30.0404Z" fill="url(#paint1_linear_11_2215)"/>
<path d="M46.8723 30.0404C46.991 28.9288 46.9994 27.5253 47 25.6376H44.1346C44.0774 25.0647 43.8318 24.6196 43.3979 24.3024C42.9639 23.9852 42.375 23.8266 41.6311 23.8266C41.1256 23.8266 40.6988 23.8976 40.3507 24.0396C40.0026 24.1769 39.7355 24.3687 39.5496 24.6149C39.3683 24.8611 39.2777 25.1405 39.2777 25.453C39.2682 25.7134 39.323 25.9407 39.4423 26.1348C39.5662 26.3289 39.7355 26.497 39.9501 26.6391C40.1647 26.7764 40.4127 26.8971 40.694 27.0013C40.9754 27.1007 41.2758 27.1859 41.5953 27.257L42.9115 27.5695C43.5505 27.7115 44.137 27.9009 44.6711 28.1376C45.2052 28.3744 45.6678 28.6656 46.0588 29.0112C46.3953 29.3087 46.6665 29.6517 46.8723 30.0404Z" fill="black" fill-opacity="0.2"/>
<path d="M55.9531 31.1918V24.8707H58.5241V35.7798H56.0312V33.8409H55.9176C55.6714 34.4517 55.2666 34.9512 54.7031 35.3395C54.1444 35.7277 53.4555 35.9219 52.6364 35.9219C51.9214 35.9219 51.2893 35.7633 50.7401 35.446C50.1955 35.1241 49.7694 34.6577 49.4616 34.0469C49.1539 33.4313 49 32.688 49 31.8168V24.8707H51.571V31.419C51.571 32.1103 51.7604 32.6596 52.1392 33.0668C52.518 33.474 53.0152 33.6776 53.6307 33.6776C54.0095 33.6776 54.3764 33.5852 54.7315 33.4006C55.0866 33.2159 55.3778 32.9413 55.6051 32.5767C55.8371 32.2074 55.9531 31.7457 55.9531 31.1918Z" fill="#999999"/>
<path d="M60.4816 35.7798V21.2344H63.0526V26.6747H63.1592C63.2917 26.4096 63.4788 26.1278 63.7202 25.8295C63.9617 25.5265 64.2884 25.2685 64.7004 25.0554C65.1123 24.8376 65.6379 24.7287 66.2771 24.7287C67.1199 24.7287 67.8798 24.9441 68.5569 25.375C69.2387 25.8011 69.7785 26.4332 70.1762 27.2713C70.5787 28.1046 70.7799 29.1274 70.7799 30.3395C70.7799 31.5374 70.5834 32.5554 70.1904 33.3935C69.7974 34.2315 69.2624 34.8707 68.5853 35.3111C67.9082 35.7514 67.1412 35.9716 66.2842 35.9716C65.6592 35.9716 65.1407 35.8674 64.7288 35.6591C64.3168 35.4508 63.9854 35.1998 63.7344 34.9062C63.4882 34.608 63.2965 34.3262 63.1592 34.0611H63.01V35.7798H60.4816ZM63.0029 30.3253C63.0029 31.0308 63.1023 31.6487 63.3012 32.179C63.5048 32.7093 63.796 33.1236 64.1748 33.4219C64.5583 33.7154 65.0223 33.8622 65.5668 33.8622C66.135 33.8622 66.6109 33.7107 66.9944 33.4077C67.3779 33.0999 67.6667 32.6809 67.8609 32.1506C68.0597 31.6155 68.1592 31.0071 68.1592 30.3253C68.1592 29.6482 68.0621 29.0469 67.868 28.5213C67.6738 27.9957 67.385 27.5838 67.0015 27.2855C66.618 26.9872 66.1397 26.8381 65.5668 26.8381C65.0176 26.8381 64.5512 26.9825 64.1677 27.2713C63.7842 27.5601 63.493 27.965 63.2941 28.4858C63.1 29.0066 63.0029 29.6198 63.0029 30.3253Z" fill="#999999"/>
<path d="M77.6131 24.8707V26.8594H71.3418V24.8707H77.6131ZM72.8901 22.2571H75.4611V32.4986C75.4611 32.8442 75.5132 33.1094 75.6173 33.294C75.7262 33.474 75.8683 33.5971 76.0435 33.6634C76.2187 33.7296 76.4128 33.7628 76.6259 33.7628C76.7868 33.7628 76.9336 33.7509 77.0662 33.7273C77.2035 33.7036 77.3077 33.6823 77.3787 33.6634L77.8119 35.6733C77.6746 35.7206 77.4781 35.7727 77.2224 35.8295C76.9715 35.8864 76.6637 35.9195 76.2991 35.929C75.6552 35.9479 75.0752 35.8509 74.5591 35.6378C74.043 35.42 73.6334 35.0838 73.3304 34.6293C73.0321 34.1747 72.8853 33.6065 72.8901 32.9247V22.2571Z" fill="#999999"/>
<path d="M78.9633 35.7798V24.8707H81.4562V26.6889H81.5698C81.7687 26.0592 82.1096 25.5739 82.5925 25.233C83.0802 24.8873 83.6366 24.7145 84.2616 24.7145C84.4036 24.7145 84.5622 24.7216 84.7374 24.7358C84.9174 24.7453 85.0665 24.7618 85.1849 24.7855V27.1506C85.076 27.1127 84.9032 27.0795 84.6664 27.0511C84.4344 27.018 84.2095 27.0014 83.9917 27.0014C83.5229 27.0014 83.1015 27.1032 82.7275 27.3068C82.3582 27.5057 82.067 27.7827 81.8539 28.1378C81.6408 28.4929 81.5343 28.9025 81.5343 29.3665V35.7798H78.9633Z" fill="#999999"/>
<path d="M89.0369 36C88.3456 36 87.7229 35.8769 87.169 35.6307C86.6197 35.3797 86.1841 35.0104 85.8621 34.5227C85.5449 34.035 85.3863 33.4337 85.3863 32.7188C85.3863 32.1032 85.4999 31.5942 85.7272 31.1918C85.9545 30.7893 86.2646 30.4673 86.6576 30.2259C87.0506 29.9844 87.4933 29.8021 87.9857 29.679C88.4829 29.5511 88.9966 29.4588 89.5269 29.402C90.1661 29.3357 90.6846 29.2765 91.0823 29.2244C91.48 29.1676 91.7689 29.0824 91.9488 28.9688C92.1335 28.8504 92.2258 28.6681 92.2258 28.4219V28.3793C92.2258 27.8442 92.0672 27.4299 91.7499 27.1364C91.4327 26.8428 90.9758 26.696 90.3792 26.696C89.7495 26.696 89.2499 26.8333 88.8806 27.108C88.516 27.3826 88.2698 27.7069 88.142 28.081L85.7414 27.7401C85.9308 27.0772 86.2433 26.5232 86.6789 26.0781C87.1145 25.6283 87.6472 25.2921 88.2769 25.0696C88.9067 24.8423 89.6027 24.7287 90.365 24.7287C90.8906 24.7287 91.4137 24.7902 91.9346 24.9134C92.4554 25.0365 92.9313 25.2401 93.3621 25.5241C93.793 25.8035 94.1387 26.1847 94.3991 26.6676C94.6642 27.1506 94.7968 27.7543 94.7968 28.4787V35.7798H92.3252V34.2812H92.24C92.0837 34.5843 91.8636 34.8684 91.5795 35.1335C91.3001 35.3939 90.9474 35.6046 90.5212 35.7656C90.0998 35.9219 89.605 36 89.0369 36ZM89.7045 34.1108C90.2206 34.1108 90.668 34.009 91.0468 33.8054C91.4256 33.5971 91.7168 33.3224 91.9204 32.9815C92.1287 32.6406 92.2329 32.2689 92.2329 31.8665V30.581C92.1524 30.6473 92.0151 30.7088 91.821 30.7656C91.6316 30.8224 91.4185 30.8722 91.1817 30.9148C90.945 30.9574 90.7106 30.9953 90.4786 31.0284C90.2466 31.0616 90.0454 31.09 89.8749 31.1136C89.4914 31.1657 89.1481 31.2509 88.8451 31.3693C88.5421 31.4877 88.303 31.6534 88.1278 31.8665C87.9526 32.0748 87.865 32.3447 87.865 32.6761C87.865 33.1496 88.0378 33.5071 88.3835 33.7486C88.7291 33.9901 89.1694 34.1108 89.7045 34.1108Z" fill="#999999"/>
<path d="M101.341 35.9929C100.252 35.9929 99.3164 35.7538 98.5352 35.2756C97.7586 34.7974 97.1597 34.1368 96.7383 33.294C96.3216 32.4465 96.1133 31.4711 96.1133 30.3679C96.1133 29.2599 96.3263 28.2822 96.7525 27.4347C97.1786 26.5824 97.7799 25.9195 98.5565 25.446C99.3377 24.9678 100.261 24.7287 101.326 24.7287C102.212 24.7287 102.995 24.892 103.677 25.2188C104.364 25.5407 104.911 25.9976 105.318 26.5895C105.725 27.1766 105.957 27.8632 106.014 28.6491H103.556C103.457 28.1236 103.22 27.6856 102.846 27.3352C102.477 26.9801 101.982 26.8026 101.362 26.8026C100.836 26.8026 100.375 26.9446 99.9769 27.2287C99.5792 27.508 99.2691 27.9105 99.0465 28.4361C98.8287 28.9616 98.7198 29.5914 98.7198 30.3253C98.7198 31.0687 98.8287 31.7079 99.0465 32.2429C99.2643 32.7732 99.5697 33.1828 99.9627 33.4716C100.36 33.7557 100.827 33.8977 101.362 33.8977C101.741 33.8977 102.079 33.8267 102.377 33.6847C102.681 33.5379 102.934 33.3272 103.137 33.0526C103.341 32.7779 103.481 32.4441 103.556 32.0511H106.014C105.952 32.8229 105.725 33.5071 105.332 34.1037C104.939 34.6956 104.404 35.1596 103.727 35.4957C103.05 35.8272 102.254 35.9929 101.341 35.9929Z" fill="#999999"/>
<path d="M109.669 32.3565L109.662 29.2528H110.074L113.994 24.8707H116.998L112.176 30.2401H111.643L109.669 32.3565ZM107.325 35.7798V21.2344H109.896V35.7798H107.325ZM114.172 35.7798L110.62 30.8153L112.353 29.0043L117.247 35.7798H114.172Z" fill="#999999"/>
<path d="M123.359 24.8707V26.8594H117.088V24.8707H123.359ZM118.636 22.2571H121.207V32.4986C121.207 32.8442 121.259 33.1094 121.363 33.294C121.472 33.474 121.614 33.5971 121.79 33.6634C121.965 33.7296 122.159 33.7628 122.372 33.7628C122.533 33.7628 122.68 33.7509 122.812 33.7273C122.95 33.7036 123.054 33.6823 123.125 33.6634L123.558 35.6733C123.421 35.7206 123.224 35.7727 122.969 35.8295C122.718 35.8864 122.41 35.9195 122.045 35.929C121.401 35.9479 120.821 35.8509 120.305 35.6378C119.789 35.42 119.38 35.0838 119.076 34.6293C118.778 34.1747 118.631 33.6065 118.636 32.9247V22.2571Z" fill="#999999"/>
<defs>
<linearGradient id="paint0_linear_11_2215" x1="17.4428" y1="7.05302e-08" x2="29.2782" y2="53.1197" gradientUnits="userSpaceOnUse">
<stop stop-color="#DDE1EB"/>
<stop offset="1" stop-color="#878587"/>
</linearGradient>
<linearGradient id="paint1_linear_11_2215" x1="17.4428" y1="7.05302e-08" x2="29.2782" y2="53.1197" gradientUnits="userSpaceOnUse">
<stop stop-color="#DDE1EB"/>
<stop offset="1" stop-color="#878587"/>
</linearGradient>
</defs>
</svg>
